<mxfile host="app.diagrams.net" agent="Mozilla/5.0 (Windows NT 10.0; Win64; x64) AppleWebKit/537.36 (KHTML, like Gecko) Chrome/141.0.0.0 Safari/537.36" version="28.2.7">
  <diagram name="Page-1" id="uGcQFHAI4GSlOA4Aewoo">
    <mxGraphModel dx="983" dy="536" grid="1" gridSize="10" guides="1" tooltips="1" connect="1" arrows="1" fold="1" page="1" pageScale="1" pageWidth="850" pageHeight="1100" math="0" shadow="0">
      <root>
        <mxCell id="0" />
        <mxCell id="1" parent="0" />
        <mxCell id="Pfon82NVZABm7Eqx-mhg-41" value="" style="endArrow=none;html=1;rounded=0;entryX=0;entryY=0.5;entryDx=0;entryDy=0;" edge="1" parent="1" source="Pfon82NVZABm7Eqx-mhg-1" target="Pfon82NVZABm7Eqx-mhg-19">
          <mxGeometry width="50" height="50" relative="1" as="geometry">
            <mxPoint x="560" y="696" as="sourcePoint" />
            <mxPoint x="890" y="490" as="targetPoint" />
          </mxGeometry>
        </mxCell>
        <mxCell id="Pfon82NVZABm7Eqx-mhg-40" value="" style="endArrow=none;html=1;rounded=0;entryX=0;entryY=0.5;entryDx=0;entryDy=0;" edge="1" parent="1" source="Pfon82NVZABm7Eqx-mhg-1" target="Pfon82NVZABm7Eqx-mhg-18">
          <mxGeometry width="50" height="50" relative="1" as="geometry">
            <mxPoint x="400" y="616" as="sourcePoint" />
            <mxPoint x="730" y="410" as="targetPoint" />
          </mxGeometry>
        </mxCell>
        <mxCell id="Pfon82NVZABm7Eqx-mhg-39" value="" style="endArrow=none;html=1;rounded=0;entryX=0;entryY=0.5;entryDx=0;entryDy=0;" edge="1" parent="1" source="Pfon82NVZABm7Eqx-mhg-1" target="Pfon82NVZABm7Eqx-mhg-16">
          <mxGeometry width="50" height="50" relative="1" as="geometry">
            <mxPoint x="450" y="566" as="sourcePoint" />
            <mxPoint x="780" y="360" as="targetPoint" />
          </mxGeometry>
        </mxCell>
        <mxCell id="Pfon82NVZABm7Eqx-mhg-37" value="" style="endArrow=none;html=1;rounded=0;entryX=0;entryY=0.5;entryDx=0;entryDy=0;" edge="1" parent="1" source="Pfon82NVZABm7Eqx-mhg-1" target="Pfon82NVZABm7Eqx-mhg-14">
          <mxGeometry width="50" height="50" relative="1" as="geometry">
            <mxPoint x="520" y="496" as="sourcePoint" />
            <mxPoint x="850" y="290" as="targetPoint" />
          </mxGeometry>
        </mxCell>
        <mxCell id="Pfon82NVZABm7Eqx-mhg-36" value="" style="endArrow=none;html=1;rounded=0;entryX=0;entryY=0.5;entryDx=0;entryDy=0;" edge="1" parent="1" source="Pfon82NVZABm7Eqx-mhg-1" target="Pfon82NVZABm7Eqx-mhg-13">
          <mxGeometry width="50" height="50" relative="1" as="geometry">
            <mxPoint x="430" y="566" as="sourcePoint" />
            <mxPoint x="760" y="360" as="targetPoint" />
          </mxGeometry>
        </mxCell>
        <mxCell id="Pfon82NVZABm7Eqx-mhg-34" value="" style="endArrow=none;html=1;rounded=0;entryX=0;entryY=0.5;entryDx=0;entryDy=0;" edge="1" parent="1" source="Pfon82NVZABm7Eqx-mhg-1" target="Pfon82NVZABm7Eqx-mhg-12">
          <mxGeometry width="50" height="50" relative="1" as="geometry">
            <mxPoint x="320" y="378" as="sourcePoint" />
            <mxPoint x="440" y="320" as="targetPoint" />
          </mxGeometry>
        </mxCell>
        <mxCell id="Pfon82NVZABm7Eqx-mhg-21" value="" style="rounded=0;whiteSpace=wrap;html=1;fillColor=none;" vertex="1" parent="1">
          <mxGeometry x="260" y="20" width="500" height="630" as="geometry" />
        </mxCell>
        <mxCell id="Pfon82NVZABm7Eqx-mhg-1" value="Utilizator" style="shape=umlActor;verticalLabelPosition=bottom;verticalAlign=top;html=1;outlineConnect=0;" vertex="1" parent="1">
          <mxGeometry x="130" y="290" width="30" height="60" as="geometry" />
        </mxCell>
        <mxCell id="Pfon82NVZABm7Eqx-mhg-3" value="Creare graf" style="ellipse;whiteSpace=wrap;html=1;" vertex="1" parent="1">
          <mxGeometry x="270" y="130" width="110" height="50" as="geometry" />
        </mxCell>
        <mxCell id="Pfon82NVZABm7Eqx-mhg-4" value="Editare graf" style="ellipse;whiteSpace=wrap;html=1;" vertex="1" parent="1">
          <mxGeometry x="270" y="30" width="110" height="50" as="geometry" />
        </mxCell>
        <mxCell id="Pfon82NVZABm7Eqx-mhg-5" value="Selectare tip graf" style="ellipse;whiteSpace=wrap;html=1;" vertex="1" parent="1">
          <mxGeometry x="270" y="80" width="110" height="50" as="geometry" />
        </mxCell>
        <mxCell id="Pfon82NVZABm7Eqx-mhg-6" value="Generare graf aleatoriu" style="ellipse;whiteSpace=wrap;html=1;" vertex="1" parent="1">
          <mxGeometry x="270" y="230" width="110" height="50" as="geometry" />
        </mxCell>
        <mxCell id="Pfon82NVZABm7Eqx-mhg-7" value="Salvare graf" style="ellipse;whiteSpace=wrap;html=1;" vertex="1" parent="1">
          <mxGeometry x="280" y="340" width="110" height="50" as="geometry" />
        </mxCell>
        <mxCell id="Pfon82NVZABm7Eqx-mhg-8" value="Import graf" style="ellipse;whiteSpace=wrap;html=1;" vertex="1" parent="1">
          <mxGeometry x="280" y="400" width="110" height="50" as="geometry" />
        </mxCell>
        <mxCell id="Pfon82NVZABm7Eqx-mhg-9" value="Export graf" style="ellipse;whiteSpace=wrap;html=1;" vertex="1" parent="1">
          <mxGeometry x="280" y="460" width="110" height="50" as="geometry" />
        </mxCell>
        <mxCell id="Pfon82NVZABm7Eqx-mhg-10" value="Export graf" style="ellipse;whiteSpace=wrap;html=1;" vertex="1" parent="1">
          <mxGeometry x="280" y="520" width="110" height="50" as="geometry" />
        </mxCell>
        <mxCell id="Pfon82NVZABm7Eqx-mhg-11" value="Vizualizare changelog" style="ellipse;whiteSpace=wrap;html=1;" vertex="1" parent="1">
          <mxGeometry x="280" y="580" width="110" height="50" as="geometry" />
        </mxCell>
        <mxCell id="Pfon82NVZABm7Eqx-mhg-12" value="Selectare algoritm" style="ellipse;whiteSpace=wrap;html=1;" vertex="1" parent="1">
          <mxGeometry x="650" y="200" width="110" height="50" as="geometry" />
        </mxCell>
        <mxCell id="Pfon82NVZABm7Eqx-mhg-13" value="Vizualizare&amp;nbsp;&lt;div&gt;algoritm&lt;/div&gt;" style="ellipse;whiteSpace=wrap;html=1;" vertex="1" parent="1">
          <mxGeometry x="490" y="90" width="110" height="50" as="geometry" />
        </mxCell>
        <mxCell id="Pfon82NVZABm7Eqx-mhg-14" value="Deruleaza pas&lt;div&gt;cu pas&amp;nbsp;&lt;/div&gt;" style="ellipse;whiteSpace=wrap;html=1;" vertex="1" parent="1">
          <mxGeometry x="490" y="170" width="110" height="50" as="geometry" />
        </mxCell>
        <mxCell id="Pfon82NVZABm7Eqx-mhg-15" value="Personalizeaza&lt;div&gt;animatie&lt;/div&gt;" style="ellipse;whiteSpace=wrap;html=1;" vertex="1" parent="1">
          <mxGeometry x="490" y="260" width="110" height="50" as="geometry" />
        </mxCell>
        <mxCell id="Pfon82NVZABm7Eqx-mhg-16" value="Undo / Redo" style="ellipse;whiteSpace=wrap;html=1;" vertex="1" parent="1">
          <mxGeometry x="490" y="340" width="110" height="50" as="geometry" />
        </mxCell>
        <mxCell id="Pfon82NVZABm7Eqx-mhg-18" value="Creare cont" style="ellipse;whiteSpace=wrap;html=1;" vertex="1" parent="1">
          <mxGeometry x="490" y="430" width="110" height="50" as="geometry" />
        </mxCell>
        <mxCell id="Pfon82NVZABm7Eqx-mhg-19" value="Stergere cont" style="ellipse;whiteSpace=wrap;html=1;" vertex="1" parent="1">
          <mxGeometry x="490" y="490" width="110" height="50" as="geometry" />
        </mxCell>
        <mxCell id="Pfon82NVZABm7Eqx-mhg-24" value="&lt;b&gt;Advanced Graph Visualizer&lt;/b&gt;" style="text;html=1;whiteSpace=wrap;strokeColor=none;fillColor=none;align=center;verticalAlign=middle;rounded=0;" vertex="1" parent="1">
          <mxGeometry x="425" y="20" width="190" height="30" as="geometry" />
        </mxCell>
        <mxCell id="Pfon82NVZABm7Eqx-mhg-25" value="" style="endArrow=none;html=1;rounded=0;entryX=0;entryY=0.5;entryDx=0;entryDy=0;" edge="1" parent="1" source="Pfon82NVZABm7Eqx-mhg-1" target="Pfon82NVZABm7Eqx-mhg-3">
          <mxGeometry width="50" height="50" relative="1" as="geometry">
            <mxPoint x="410" y="370" as="sourcePoint" />
            <mxPoint x="460" y="320" as="targetPoint" />
          </mxGeometry>
        </mxCell>
        <mxCell id="Pfon82NVZABm7Eqx-mhg-26" value="" style="endArrow=none;html=1;rounded=0;entryX=0;entryY=0.5;entryDx=0;entryDy=0;" edge="1" parent="1" source="Pfon82NVZABm7Eqx-mhg-1" target="Pfon82NVZABm7Eqx-mhg-4">
          <mxGeometry width="50" height="50" relative="1" as="geometry">
            <mxPoint x="300" y="428" as="sourcePoint" />
            <mxPoint x="420" y="210" as="targetPoint" />
          </mxGeometry>
        </mxCell>
        <mxCell id="Pfon82NVZABm7Eqx-mhg-27" value="" style="endArrow=none;html=1;rounded=0;entryX=0;entryY=0.5;entryDx=0;entryDy=0;" edge="1" parent="1" source="Pfon82NVZABm7Eqx-mhg-1" target="Pfon82NVZABm7Eqx-mhg-5">
          <mxGeometry width="50" height="50" relative="1" as="geometry">
            <mxPoint x="310" y="494" as="sourcePoint" />
            <mxPoint x="430" y="330" as="targetPoint" />
          </mxGeometry>
        </mxCell>
        <mxCell id="Pfon82NVZABm7Eqx-mhg-28" value="" style="endArrow=none;html=1;rounded=0;entryX=0;entryY=0.5;entryDx=0;entryDy=0;" edge="1" parent="1" source="Pfon82NVZABm7Eqx-mhg-1" target="Pfon82NVZABm7Eqx-mhg-6">
          <mxGeometry width="50" height="50" relative="1" as="geometry">
            <mxPoint x="360" y="494" as="sourcePoint" />
            <mxPoint x="480" y="330" as="targetPoint" />
          </mxGeometry>
        </mxCell>
        <mxCell id="Pfon82NVZABm7Eqx-mhg-29" value="" style="endArrow=none;html=1;rounded=0;entryX=0;entryY=0.5;entryDx=0;entryDy=0;" edge="1" parent="1" source="Pfon82NVZABm7Eqx-mhg-1" target="Pfon82NVZABm7Eqx-mhg-7">
          <mxGeometry width="50" height="50" relative="1" as="geometry">
            <mxPoint x="360" y="448" as="sourcePoint" />
            <mxPoint x="480" y="390" as="targetPoint" />
          </mxGeometry>
        </mxCell>
        <mxCell id="Pfon82NVZABm7Eqx-mhg-30" value="" style="endArrow=none;html=1;rounded=0;entryX=0;entryY=0.5;entryDx=0;entryDy=0;" edge="1" parent="1" source="Pfon82NVZABm7Eqx-mhg-1" target="Pfon82NVZABm7Eqx-mhg-8">
          <mxGeometry width="50" height="50" relative="1" as="geometry">
            <mxPoint x="300" y="478" as="sourcePoint" />
            <mxPoint x="420" y="420" as="targetPoint" />
          </mxGeometry>
        </mxCell>
        <mxCell id="Pfon82NVZABm7Eqx-mhg-31" value="" style="endArrow=none;html=1;rounded=0;entryX=0;entryY=0.5;entryDx=0;entryDy=0;" edge="1" parent="1" source="Pfon82NVZABm7Eqx-mhg-1" target="Pfon82NVZABm7Eqx-mhg-9">
          <mxGeometry width="50" height="50" relative="1" as="geometry">
            <mxPoint x="320" y="498" as="sourcePoint" />
            <mxPoint x="440" y="440" as="targetPoint" />
          </mxGeometry>
        </mxCell>
        <mxCell id="Pfon82NVZABm7Eqx-mhg-32" value="" style="endArrow=none;html=1;rounded=0;entryX=0;entryY=0.5;entryDx=0;entryDy=0;" edge="1" parent="1" source="Pfon82NVZABm7Eqx-mhg-1" target="Pfon82NVZABm7Eqx-mhg-10">
          <mxGeometry width="50" height="50" relative="1" as="geometry">
            <mxPoint x="250" y="528" as="sourcePoint" />
            <mxPoint x="370" y="470" as="targetPoint" />
          </mxGeometry>
        </mxCell>
        <mxCell id="Pfon82NVZABm7Eqx-mhg-33" value="" style="endArrow=none;html=1;rounded=0;entryX=0;entryY=0.5;entryDx=0;entryDy=0;" edge="1" parent="1" source="Pfon82NVZABm7Eqx-mhg-1" target="Pfon82NVZABm7Eqx-mhg-11">
          <mxGeometry width="50" height="50" relative="1" as="geometry">
            <mxPoint x="180" y="488" as="sourcePoint" />
            <mxPoint x="300" y="430" as="targetPoint" />
          </mxGeometry>
        </mxCell>
        <mxCell id="Pfon82NVZABm7Eqx-mhg-38" value="" style="endArrow=none;html=1;rounded=0;entryX=0;entryY=0.5;entryDx=0;entryDy=0;" edge="1" parent="1" source="Pfon82NVZABm7Eqx-mhg-1" target="Pfon82NVZABm7Eqx-mhg-15">
          <mxGeometry width="50" height="50" relative="1" as="geometry">
            <mxPoint x="540" y="586" as="sourcePoint" />
            <mxPoint x="870" y="380" as="targetPoint" />
          </mxGeometry>
        </mxCell>
        <mxCell id="Pfon82NVZABm7Eqx-mhg-42" value="" style="endArrow=none;html=1;strokeWidth=2;rounded=0;exitX=1;exitY=0.5;exitDx=0;exitDy=0;entryX=0.5;entryY=0;entryDx=0;entryDy=0;dashed=1;" edge="1" parent="1" source="Pfon82NVZABm7Eqx-mhg-13" target="Pfon82NVZABm7Eqx-mhg-12">
          <mxGeometry width="50" height="50" relative="1" as="geometry">
            <mxPoint x="460" y="240" as="sourcePoint" />
            <mxPoint x="510" y="190" as="targetPoint" />
          </mxGeometry>
        </mxCell>
        <mxCell id="Pfon82NVZABm7Eqx-mhg-43" value="" style="endArrow=none;html=1;strokeWidth=2;rounded=0;exitX=1;exitY=0.5;exitDx=0;exitDy=0;entryX=0.458;entryY=0.011;entryDx=0;entryDy=0;dashed=1;exitPerimeter=0;entryPerimeter=0;" edge="1" parent="1" source="Pfon82NVZABm7Eqx-mhg-14" target="Pfon82NVZABm7Eqx-mhg-12">
          <mxGeometry width="50" height="50" relative="1" as="geometry">
            <mxPoint x="660" y="180" as="sourcePoint" />
            <mxPoint x="765" y="265" as="targetPoint" />
          </mxGeometry>
        </mxCell>
        <mxCell id="Pfon82NVZABm7Eqx-mhg-44" value="&amp;lt;&amp;lt; include &amp;gt;&amp;gt;" style="text;html=1;whiteSpace=wrap;strokeColor=none;fillColor=none;align=center;verticalAlign=middle;rounded=0;" vertex="1" parent="1">
          <mxGeometry x="630" y="120" width="90" height="30" as="geometry" />
        </mxCell>
        <mxCell id="Pfon82NVZABm7Eqx-mhg-45" value="&amp;lt;&amp;lt; include &amp;gt;&amp;gt;" style="text;html=1;whiteSpace=wrap;strokeColor=none;fillColor=none;align=center;verticalAlign=middle;rounded=0;" vertex="1" parent="1">
          <mxGeometry x="590" y="170" width="90" height="30" as="geometry" />
        </mxCell>
        <mxCell id="Pfon82NVZABm7Eqx-mhg-46" value="" style="endArrow=none;html=1;strokeWidth=2;rounded=0;exitX=1;exitY=0.5;exitDx=0;exitDy=0;entryX=0.5;entryY=0;entryDx=0;entryDy=0;dashed=1;" edge="1" parent="1" source="Pfon82NVZABm7Eqx-mhg-7" target="Pfon82NVZABm7Eqx-mhg-18">
          <mxGeometry width="50" height="50" relative="1" as="geometry">
            <mxPoint x="700" y="290" as="sourcePoint" />
            <mxPoint x="805" y="375" as="targetPoint" />
          </mxGeometry>
        </mxCell>
        <mxCell id="Pfon82NVZABm7Eqx-mhg-47" value="&amp;lt;&amp;lt; include &amp;gt;&amp;gt;" style="text;html=1;whiteSpace=wrap;strokeColor=none;fillColor=none;align=center;verticalAlign=middle;rounded=0;" vertex="1" parent="1">
          <mxGeometry x="400" y="390" width="90" height="30" as="geometry" />
        </mxCell>
        <mxCell id="Pfon82NVZABm7Eqx-mhg-48" value="" style="endArrow=none;html=1;strokeWidth=2;rounded=0;exitX=0.5;exitY=0;exitDx=0;exitDy=0;entryX=0.5;entryY=1;entryDx=0;entryDy=0;dashed=1;" edge="1" parent="1" source="Pfon82NVZABm7Eqx-mhg-6" target="Pfon82NVZABm7Eqx-mhg-3">
          <mxGeometry width="50" height="50" relative="1" as="geometry">
            <mxPoint x="680" y="160" as="sourcePoint" />
            <mxPoint x="785" y="245" as="targetPoint" />
          </mxGeometry>
        </mxCell>
        <mxCell id="Pfon82NVZABm7Eqx-mhg-49" value="&amp;lt;&amp;lt; extend &amp;gt;&amp;gt;" style="text;html=1;whiteSpace=wrap;strokeColor=none;fillColor=none;align=center;verticalAlign=middle;rounded=0;" vertex="1" parent="1">
          <mxGeometry x="320" y="190" width="90" height="30" as="geometry" />
        </mxCell>
      </root>
    </mxGraphModel>
  </diagram>
</mxfile>
